<svg xmlns="http://www.w3.org/2000/svg" width="22" height="22" viewBox="0 0 22 22">
	<path d="M21,10c0-0.552-0.448-1-1-1h-1.546l-6.701-7.659l-0.008,0.007 C11.561,1.139,11.3,1,11,1s-0.561,0.139-0.745,0.349l-0.008-0.007L3.546,9H2c-0.552,0-1,0.448-1,1 c0,0.068,0.026,0.128,0.039,0.192l-0.019,0.004l2,10l0.019-0.004C3.131,20.649,3.516,21,4,21h14c0.484,0,0.869-0.351,0.961-0.808 l0.019,0.004l2-10l-0.019-0.004C20.974,10.128,21,10.068,21,10z M11,3.519L15.796,9H6.204L11,3.519z M5,12h2l0.333,2h-2L5,12z M6,18l-0.333-2h2L8,18H6z M12,18h-2v-2h2V18z M12,14h-2v-2h2V14z M16,18h-2l0.333-2h2L16,18z M16.667,14h-2L15,12h2L16.667,14z" />
</svg>