<svg xmlns="http://www.w3.org/2000/svg" width="22" height="22" viewBox="0 0 22 22">
	<path d="M16,5c0.552,0,1-0.448,1-1V2c0-0.552-0.448-1-1-1s-1,0.448-1,1v2 C15,4.552,15.448,5,16,5z M19,3v1c0,1.657-1.343,3-3,3s-3-1.343-3-3V3H9v1c0,1.657-1.343,3-3,3S3,5.657,3,4V3C1.895,3,1,3.895,1,5 v14c0,1.105,0.895,2,2,2h16c1.105,0,2-0.895,2-2V5C21,3.895,20.105,3,19,3z M10.67,16.425c-0.415,0.454-1.029,0.681-1.841,0.681 c-1.002,0-1.698-0.327-2.088-0.981c-0.205-0.348-0.319-0.804-0.341-1.367h1.367c0,0.283,0.045,0.518,0.136,0.703 c0.169,0.342,0.476,0.513,0.921,0.513c0.273,0,0.511-0.094,0.714-0.281c0.203-0.187,0.305-0.457,0.305-0.808 c0-0.465-0.188-0.776-0.565-0.933c-0.214-0.088-0.552-0.132-1.012-0.132v-0.996c0.451-0.007,0.766-0.05,0.944-0.132 c0.308-0.137,0.462-0.413,0.462-0.83c0-0.27-0.079-0.49-0.236-0.659s-0.379-0.254-0.665-0.254c-0.328,0-0.569,0.104-0.723,0.312 c-0.154,0.208-0.228,0.487-0.222,0.835H6.526c0.013-0.352,0.073-0.685,0.18-1.001c0.114-0.277,0.293-0.532,0.537-0.767 c0.182-0.166,0.398-0.293,0.649-0.381c0.25-0.088,0.558-0.132,0.922-0.132c0.676,0,1.222,0.175,1.636,0.525 c0.415,0.35,0.622,0.82,0.622,1.409c0,0.417-0.124,0.768-0.371,1.055c-0.156,0.179-0.319,0.301-0.488,0.366 c0.127,0,0.309,0.109,0.547,0.327c0.355,0.329,0.532,0.778,0.532,1.348C11.292,15.444,11.084,15.971,10.67,16.425z M15.481,16.93 h-1.426v-4.883H12.39V11.1c0.438-0.019,0.745-0.049,0.92-0.088c0.279-0.062,0.507-0.186,0.682-0.371 c0.12-0.127,0.211-0.296,0.273-0.508c0.036-0.127,0.054-0.221,0.054-0.283h1.162V16.93z M6,5c0.552,0,1-0.448,1-1V2 c0-0.552-0.448-1-1-1C5.448,1,5,1.448,5,2v2C5,4.552,5.448,5,6,5z"/>
</svg>