<svg xmlns="http://www.w3.org/2000/svg" width="22" height="22" viewBox="0 0 22 22">
	<path d="M11,21C5.477,21,1,16.523,1,11C1,5.477,5.477,1,11,1s10,4.477,10,10 C21,16.523,16.523,21,11,21z M11,19c0.552,0,1-0.448,1-1s-0.448-1-1-1s-1,0.448-1,1S10.448,19,11,19z M4,10c-0.552,0-1,0.448-1,1 s0.448,1,1,1s1-0.448,1-1S4.552,10,4,10z M6.757,5.343c-0.391-0.39-1.024-0.39-1.414,0c-0.391,0.391-0.391,1.024,0,1.414 c0.39,0.391,1.024,0.391,1.414,0S7.148,5.734,6.757,5.343z M6.757,15.243c-0.391-0.391-1.024-0.391-1.414,0 c-0.391,0.391-0.391,1.024,0,1.414c0.39,0.39,1.024,0.39,1.414,0C7.148,16.266,7.148,15.633,6.757,15.243z M12,9.277V4l0,0l0,0 c0-0.552-0.448-1-1-1s-1,0.448-1,1c0,0,0,0,0,0v5.277C9.405,9.624,9,10.262,9,11c0,1.105,0.895,2,2,2 c0.178,0,0.347-0.031,0.512-0.074l3.781,3.781l0.01-0.01c0.393,0.339,0.981,0.333,1.354-0.04s0.379-0.961,0.04-1.354l0.01-0.01 l-3.781-3.781C12.969,11.347,13,11.178,13,11C13,10.262,12.595,9.624,12,9.277z M16.657,5.343c-0.391-0.39-1.024-0.39-1.414,0 c-0.391,0.391-0.391,1.024,0,1.414s1.024,0.391,1.414,0C17.047,6.367,17.047,5.734,16.657,5.343z M18,10c-0.552,0-1,0.448-1,1 s0.448,1,1,1s1-0.448,1-1S18.552,10,18,10z"/>
</svg>