<svg xmlns="http://www.w3.org/2000/svg" width="22" height="22" viewBox="0 0 22 22">
	<path d="M8.266,14.003L10,14v5h2v-5l1.713,0.003l-2.723-2.671L8.266,14.003z M18.947,9.526C18.963,9.35,19,9.18,19,9c0-3.314-2.686-6-6-6c-2.261,0-4.206,1.265-5.229,3.113C7.524,6.047,7.268,6,7,6 C5.343,6,4,7.343,4,9c0,0.047,0.012,0.091,0.014,0.137C2.284,9.578,1,11.133,1,13c0,2.209,1.791,4,4,4h3.001l0.001-0.974 c-0.68-0.129-1.386-0.59-1.655-1.241c-0.32-0.773-0.138-1.661,0.461-2.248l2.723-2.671c0.404-0.396,0.931-0.595,1.458-0.595 c0.527,0,1.054,0.198,1.458,0.595l2.723,2.671c0.599,0.587,0.781,1.475,0.461,2.248c-0.269,0.651-0.944,1.112-1.624,1.241 L14.005,17H17c2.209,0,4-1.791,4-4C21,11.502,20.166,10.211,18.947,9.526z"/>
</svg>