<svg xmlns="http://www.w3.org/2000/svg" width="22" height="22" viewBox="0 0 22 22">
	<path d="M12,10.5l-4,6h3l-1,4l4-6h-3L12,10.5z M18.947,8.026C18.963,7.85,19,7.68,19,7.5 c0-3.314-2.686-6-6-6c-2.261,0-4.206,1.265-5.229,3.113C7.524,4.547,7.268,4.5,7,4.5c-1.657,0-3,1.343-3,3 c0,0.047,0.012,0.091,0.014,0.137C2.284,8.078,1,9.633,1,11.5c0,2.209,1.791,4,4,4h1.279c0.021-0.035,0.03-0.075,0.053-0.109 l3.985-5.974c0.037-0.057,0.077-0.113,0.12-0.166c0.136-0.17,0.295-0.313,0.471-0.427c0.266-0.173,0.576-0.285,0.91-0.315 C11.879,8.503,11.939,8.5,12,8.5c0.03,0,0.059,0.001,0.089,0.002c1.066,0.044,1.914,0.922,1.914,1.998 c0,0.204-0.031,0.401-0.088,0.586L13.562,12.5H14c0.738,0,1.416,0.406,1.764,1.056c0.329,0.614,0.301,1.347-0.046,1.944H17 c2.209,0,4-1.791,4-4C21,10.002,20.166,8.711,18.947,8.026z"/>
</svg>