<svg xmlns="http://www.w3.org/2000/svg" width="22" height="22" viewBox="0 0 22 22">
	<path d="M12,12.15h-2v5l-1.713-0.003l2.723,2.671l2.723-2.671L12,17.15V12.15z M18.947,8.708C18.963,8.531,19,8.362,19,8.182c0-3.314-2.686-6-6-6c-2.261,0-4.206,1.265-5.229,3.113 C7.524,5.228,7.268,5.182,7,5.182c-1.657,0-3,1.343-3,3c0,0.047,0.012,0.091,0.014,0.137C2.284,8.76,1,10.315,1,12.182 c0,2.209,1.791,4,4,4h1.478c0.312-0.549,0.903-0.942,1.514-1.058L8,12.15c0-1.138,0.854-2,2-2h2c1.146,0,2,0.862,2,2l-0.002,2.974 c0.611,0.116,1.225,0.509,1.543,1.058H17c2.209,0,4-1.791,4-4C21,10.683,20.166,9.393,18.947,8.708z"/>
</svg>