<svg xmlns="http://www.w3.org/2000/svg" width="22" height="22" viewBox="0 0 22 22">
	<path d="M19,9h-1.325c-0.137-0.458-0.317-0.893-0.54-1.306l0.937-0.937 c0.781-0.781,0.781-2.047,0-2.828s-2.047-0.781-2.828,0l-0.937,0.937C13.893,4.642,13.458,4.462,13,4.325V3c0-1.105-0.895-2-2-2 S9,1.895,9,3v1.325c-0.458,0.137-0.893,0.317-1.306,0.54L6.757,3.929c-0.781-0.781-2.047-0.781-2.828,0s-0.781,2.047,0,2.828 l0.937,0.937C4.642,8.107,4.462,8.542,4.325,9H3c-1.105,0-2,0.895-2,2s0.895,2,2,2h1.325c0.137,0.458,0.317,0.893,0.54,1.306 l-0.937,0.937c-0.781,0.781-0.781,2.047,0,2.828s2.047,0.781,2.828,0l0.937-0.937c0.413,0.223,0.848,0.403,1.306,0.54V19 c0,1.105,0.895,2,2,2s2-0.895,2-2v-1.325c0.458-0.137,0.893-0.317,1.306-0.541l0.937,0.937c0.781,0.781,2.047,0.781,2.828,0 s0.781-2.047,0-2.828l-0.937-0.937c0.223-0.413,0.403-0.848,0.54-1.306H19c1.105,0,2-0.895,2-2S20.105,9,19,9z M11,15 c-2.209,0-4-1.791-4-4s1.791-4,4-4s4,1.791,4,4S13.209,15,11,15z M11,9c-1.105,0-2,0.895-2,2s0.895,2,2,2s2-0.895,2-2 S12.105,9,11,9z"/>
</svg>