<svg xmlns="http://www.w3.org/2000/svg" width="22" height="22" viewBox="0 0 22 22">
	<path d="M11,1C5.477,1,1,5.477,1,11c0,5.523,4.477,10,10,10s10-4.477,10-10 C21,5.477,16.523,1,11,1z M12.129,16.45c0,0.304-0.236,0.551-0.527,0.551h-1.243c-0.291,0-0.527-0.246-0.527-0.551v-1.298 c0-0.304,0.236-0.551,0.527-0.551h1.243c0.291,0,0.527,0.246,0.527,0.551V16.45z M14.795,9.465 c-0.136,0.339-0.305,0.63-0.507,0.87c-0.202,0.241-0.425,0.446-0.67,0.616c-0.245,0.17-0.477,0.339-0.694,0.509 c-0.218,0.17-0.322,0.326-0.49,0.545c-0.169,0.219-0.305,0.844-0.305,0.844c0,0.304-0.236,0.551-0.527,0.551h-1.243 c-0.291,0-0.527-0.246-0.527-0.551V12.8h0.002L9.82,12.655c0.033-0.47,0.123-0.771,0.27-1.088 c0.147-0.317,0.319-0.588,0.515-0.813c0.196-0.224,0.403-0.419,0.621-0.583c0.218-0.164,0.419-0.328,0.605-0.492 c0.185-0.164,0.335-0.345,0.449-0.542c0.114-0.197,0.166-0.443,0.155-0.739c0-0.503-0.122-0.875-0.368-1.116 c-0.245-0.241-0.586-0.361-1.021-0.361c-0.294,0-0.547,0.057-0.76,0.172c-0.212,0.115-0.387,0.268-0.523,0.46 C9.627,7.744,9.526,7.969,9.461,8.226c-0.033,0.13-0.058,0.304-0.074,0.481C9.361,8.989,9.134,9.205,8.863,9.205H7.525 c-0.311,0-0.561-0.28-0.525-0.602c0.047-0.42,0.135-0.842,0.263-1.173c0.19-0.493,0.457-0.919,0.801-1.281 s0.757-0.643,1.242-0.846C9.79,5.101,10.332,5,10.931,5c0.773,0,1.419,0.107,1.936,0.32c0.517,0.213,0.934,0.479,1.25,0.796 c0.316,0.318,0.542,0.659,0.678,1.026C14.932,7.509,15,7.851,15,8.168C15,8.694,14.932,9.126,14.795,9.465z"/>
</svg>