<svg xmlns="http://www.w3.org/2000/svg" width="22" height="22" viewBox="0 0 22 22">
	<path d="M1.597,17.575c-0.781,0.781-0.586,3.414-0.586,3.414s2.633,0.195,3.414-0.586 l0.793-0.793L2.39,16.782L1.597,17.575z M19.011,0.989c-0.552,0-1.052,0.224-1.414,0.586l-2,2l-0.883-0.874l0.004-0.004 l-1.414-1.414l-0.012,0.012L13.28,1.282L12.25,2.336L6.304,8.282l1.414,1.414l5.59-5.59l0.879,0.879L3.804,15.368l2.828,2.828 L20.425,4.403c0.362-0.362,0.586-0.862,0.586-1.414C21.011,1.885,20.115,0.989,19.011,0.989z"/>
</svg>