<svg xmlns="http://www.w3.org/2000/svg" width="22" height="22" viewBox="0 0 22 22">
	<path d="M10.488,11.1c0.862-1.044,1.507-2.836,1.507-4.565C11.994,3.893,12,2,9,2 S6.006,3.893,6.006,6.535c0,1.729,0.645,3.521,1.507,4.565C3.185,11.582,1,14.23,1,19.1C1,19.597,1.398,20,1.889,20h14.222 C16.602,20,17,19.597,17,19.1C17,14.23,14.816,11.582,10.488,11.1z M16.694,11.133c0.765-0.795,1.317-2.04,1.317-3.313 c0-2.11,0-3.82-3.012-3.82c-0.439,0-0.798,0.046-1.118,0.115c0.1,0.766,0.112,1.575,0.112,2.421c0,1.083-0.194,2.193-0.543,3.215 c3.313,1.253,5.205,4.105,5.491,8.249H20l0,0c0.552,0,1-0.448,1-1v0C21,13.262,19.553,11.571,16.694,11.133z"/>
</svg>