<svg xmlns="http://www.w3.org/2000/svg" width="22" height="22" viewBox="0 0 22 22">
	<path d="M20.641,17.265l-3.202-3.197c-0.552-0.552-1.469-0.446-1.888,0.212 c-0.507,0.797-1.294,1.635-2.361,1.635c-1.016,0-4.066-3.044-4.066-3.044S6.076,9.827,6.076,8.812c0-1.065,0.84-1.851,1.638-2.357 C8.374,6.037,8.479,5.122,7.927,4.57L4.725,1.374c-0.417-0.416-1.086-0.492-1.558-0.14C1.719,2.316,0.994,3.896,0.994,4.753 c0,1.015,0,6.089,5.082,11.163s10.164,5.074,11.181,5.074c0.858,0,2.441-0.723,3.524-2.17 C21.135,18.349,21.058,17.681,20.641,17.265z"/>
</svg>