<svg xmlns="http://www.w3.org/2000/svg" width="22" height="22" viewBox="0 0 22 22">
	<path d="M10,1C9.724,1,9.474,1.112,9.293,1.293L4.586,6H3C1.895,6,1,6.895,1,8v6 c0,1.105,0.895,2,2,2h1.586l4.707,4.707C9.474,20.888,9.724,21,10,21c0.552,0,1-0.448,1-1h0V2h0C11,1.448,10.552,1,10,1z M20.707,13.293L18.414,11l2.293-2.293C20.888,8.526,21,8.276,21,8c0-0.552-0.448-1-1-1c-0.276,0-0.526,0.112-0.707,0.293 L17,9.586l-2.293-2.293C14.526,7.112,14.276,7,14,7c-0.552,0-1,0.448-1,1c0,0.276,0.112,0.526,0.293,0.707L15.586,11l-2.293,2.293 C13.112,13.474,13,13.724,13,14c0,0.552,0.448,1,1,1c0.276,0,0.526-0.112,0.707-0.293L17,12.414l2.293,2.293v0 C19.474,14.888,19.724,15,20,15c0.552,0,1-0.448,1-1C21,13.724,20.888,13.474,20.707,13.293L20.707,13.293z"/>
</svg>