<svg xmlns="http://www.w3.org/2000/svg" width="22" height="22" viewBox="0 0 22 22">
	<path d="M5.343,6.757c0.391,0.391,1.024,0.391,1.414,0c0.391-0.391,0.391-1.024,0-1.414 L5.343,3.929c-0.391-0.391-1.024-0.391-1.414,0c-0.39,0.391-0.39,1.024,0,1.414L5.343,6.757z M16.657,6.757l1.414-1.414 c0.391-0.391,0.391-1.024,0-1.414c-0.391-0.391-1.024-0.391-1.414,0l-1.414,1.414c-0.391,0.391-0.391,1.024,0,1.414 C15.633,7.148,16.266,7.148,16.657,6.757z M5,11c0-0.552-0.448-1-1-1H2c-0.552,0-1,0.448-1,1s0.448,1,1,1h2 C4.552,12,5,11.552,5,11z M5.343,15.243l-1.414,1.414c-0.39,0.391-0.39,1.024,0,1.414c0.391,0.391,1.024,0.391,1.414,0 l1.414-1.414c0.391-0.391,0.391-1.024,0-1.414C6.367,14.852,5.734,14.852,5.343,15.243z M11,5c0.552,0,1-0.448,1-1V2 c0-0.552-0.448-1-1-1s-1,0.448-1,1v2C10,4.552,10.448,5,11,5z M16.657,15.243c-0.391-0.39-1.024-0.39-1.414,0 c-0.391,0.391-0.391,1.024,0,1.414l1.414,1.414c0.391,0.391,1.024,0.391,1.414,0c0.391-0.391,0.391-1.024,0-1.414L16.657,15.243z M20,10h-2c-0.552,0-1,0.448-1,1s0.448,1,1,1h2c0.552,0,1-0.448,1-1S20.552,10,20,10z M11,17c-0.552,0-1,0.448-1,1v2 c0,0.552,0.448,1,1,1s1-0.448,1-1v-2C12,17.448,11.552,17,11,17z M11,7c-2.209,0-4,1.791-4,4s1.791,4,4,4s4-1.791,4-4 S13.209,7,11,7z"/>
</svg>