<svg xmlns="http://www.w3.org/2000/svg" width="22" height="22" viewBox="0 0 22 22">
	<path d="M20.707,8.293l-7-7C13.526,1.112,13.276,1,13,1H7C6.448,1,6,1.448,6,2v2h2 c0-0.552,0.448-1,1-1c0.552,0,1,0.448,1,1c0,0.229-0.09,0.43-0.22,0.598c0.118,0.087,0.235,0.175,0.341,0.28l7,7 c0.246,0.246,0.433,0.531,0.579,0.836l3.007-3.007C20.888,9.526,21,9.276,21,9C21,8.724,20.888,8.474,20.707,8.293z M8.707,6.293 C8.526,6.112,8.276,6,8,6H2C1.448,6,1,6.448,1,7v6c0,0.276,0.112,0.526,0.293,0.707l7,7C8.474,20.888,8.724,21,9,21 c0.276,0,0.526-0.112,0.707-0.293l6-6C15.888,14.526,16,14.276,16,14s-0.112-0.526-0.293-0.707L8.707,6.293z M4,10 c-0.552,0-1-0.448-1-1s0.448-1,1-1s1,0.448,1,1S4.552,10,4,10z"/>
</svg>