<svg xmlns="http://www.w3.org/2000/svg" width="22" height="22" viewBox="0 0 22 22">
	<path d="M12.165,17.163c-0.337-0.126-0.781-0.196-1.165-0.196 c-0.384,0-0.843,0.07-1.18,0.196c-0.515,0.192-0.729,0.788-0.451,1.249l1.357,2.267c0.273,0.427,0.273,0.427,0.548,0l1.357-2.267 C12.909,17.952,12.68,17.356,12.165,17.163z M20.557,3.419C17.728,1.888,14.475,1.002,11,1.002S4.272,1.888,1.443,3.419 C1.012,3.652,0.875,4.191,1.124,4.603L2.3,6.546c0.25,0.413,0.793,0.539,1.227,0.307C5.744,5.668,8.287,4.985,11,4.985 s5.256,0.683,7.472,1.868c0.434,0.232,0.977,0.106,1.227-0.307l1.176-1.943C21.125,4.191,20.988,3.652,20.557,3.419z M16.351,10.33C14.757,9.504,12.937,9.032,11,9.032S7.243,9.504,5.649,10.33c-0.453,0.235-0.624,0.78-0.364,1.208l1.18,1.95 c0.24,0.397,0.759,0.541,1.181,0.327c1.003-0.51,2.143-0.8,3.355-0.8s2.353,0.29,3.355,0.8c0.421,0.214,0.94,0.07,1.181-0.327 l1.18-1.95C16.975,11.11,16.805,10.565,16.351,10.33z"/>
</svg>